ffmpeg version 4.4.2-0ubuntu0.22.04.1 Copyright (c) 2000-2021 the FFmpeg developers
  built with gcc 11 (Ubuntu 11.2.0-19ubuntu1)
  configuration: --prefix=/usr --extra-version=0ubuntu0.22.04.1 --toolchain=hardened --libdir=/usr/lib/x86_64-linux-gnu --incdir=/usr/include/x86_64-linux-gnu --arch=amd64 --enable-gpl --disable-stripping --enable-gnutls --enable-ladspa --enable-libaom --enable-libass --enable-libbluray --enable-libbs2b --enable-libcaca --enable-libcdio --enable-libcodec2 --enable-libdav1d --enable-libflite --enable-libfontconfig --enable-libfreetype --enable-libfribidi --enable-libgme --enable-libgsm --enable-libjack --enable-libmp3lame --enable-libmysofa --enable-libopenjpeg --enable-libopenmpt --enable-libopus --enable-libpulse --enable-librabbitmq --enable-librubberband --enable-libshine --enable-libsnappy --enable-libsoxr --enable-libspeex --enable-libsrt --enable-libssh --enable-libtheora --enable-libtwolame --enable-libvidstab --enable-libvorbis --enable-libvpx --enable-libwebp --enable-libx265 --enable-libxml2 --enable-libxvid --enable-libzimg --enable-libzmq --enable-libzvbi --enable-lv2 --enable-omx --enable-openal --enable-opencl --enable-opengl --enable-sdl2 --enable-pocketsphinx --enable-librsvg --enable-libmfx --enable-libdc1394 --enable-libdrm --enable-libiec61883 --enable-chromaprint --enable-frei0r --enable-libx264 --enable-shared
  libavutil      56. 70.100 / 56. 70.100
  libavcodec     58.134.100 / 58.134.100
  libavformat    58. 76.100 / 58. 76.100
  libavdevice    58. 13.100 / 58. 13.100
  libavfilter     7.110.100 /  7.110.100
  libswscale      5.  9.100 /  5.  9.100
  libswresample   3.  9.100 /  3.  9.100
  libpostproc    55.  9.100 / 55.  9.100
Guessed Channel Layout for Input Stream #0.1 : mono
Input #0, avi, from 'syncnet_python/data/work/pycrop/00001/00000.avi':
  Metadata:
    software        : Lavf58.76.100
  Duration: 00:00:12.68, start: 0.000000, bitrate: 682 kb/s
  Stream #0:0: Video: mpeg4 (Simple Profile) (XVID / 0x44495658), yuv420p, 224x224 [SAR 1:1 DAR 1:1], 415 kb/s, 25 fps, 25 tbr, 25 tbn, 25 tbc
  Stream #0:1: Audio: pcm_s16le ([1][0][0][0] / 0x0001), 16000 Hz, mono, s16, 256 kb/s
Stream mapping:
  Stream #0:0 -> #0:0 (mpeg4 (native) -> mjpeg (native))
Press [q] to stop, [?] for help
[swscaler @ 0x55d868258000] deprecated pixel format used, make sure you did set range correctly
Output #0, image2, to 'syncnet_python/data/work/pytmp/00001/%06d.jpg':
  Metadata:
    software        : Lavf58.76.100
    encoder         : Lavf58.76.100
  Stream #0:0: Video: mjpeg, yuvj420p(pc, progressive), 224x224 [SAR 1:1 DAR 1:1], q=2-31, 200 kb/s, 25 fps, 25 tbn
    Metadata:
      encoder         : Lavc58.134.100 mjpeg
    Side data:
      cpb: bitrate max/min/avg: 0/0/200000 buffer size: 0 vbv_delay: N/A
frame=    1 fps=0.0 q=4.2 size=N/A time=00:00:00.04 bitrate=N/A speed=9.73x    frame=  317 fps=0.0 q=24.8 Lsize=N/A time=00:00:12.68 bitrate=N/A speed=62.8x    
video:800kB audio:0kB subtitle:0kB other streams:0kB global headers:0kB muxing overhead: unknown
ffmpeg version 4.4.2-0ubuntu0.22.04.1 Copyright (c) 2000-2021 the FFmpeg developers
  built with gcc 11 (Ubuntu 11.2.0-19ubuntu1)
  configuration: --prefix=/usr --extra-version=0ubuntu0.22.04.1 --toolchain=hardened --libdir=/usr/lib/x86_64-linux-gnu --incdir=/usr/include/x86_64-linux-gnu --arch=amd64 --enable-gpl --disable-stripping --enable-gnutls --enable-ladspa --enable-libaom --enable-libass --enable-libbluray --enable-libbs2b --enable-libcaca --enable-libcdio --enable-libcodec2 --enable-libdav1d --enable-libflite --enable-libfontconfig --enable-libfreetype --enable-libfribidi --enable-libgme --enable-libgsm --enable-libjack --enable-libmp3lame --enable-libmysofa --enable-libopenjpeg --enable-libopenmpt --enable-libopus --enable-libpulse --enable-librabbitmq --enable-librubberband --enable-libshine --enable-libsnappy --enable-libsoxr --enable-libspeex --enable-libsrt --enable-libssh --enable-libtheora --enable-libtwolame --enable-libvidstab --enable-libvorbis --enable-libvpx --enable-libwebp --enable-libx265 --enable-libxml2 --enable-libxvid --enable-libzimg --enable-libzmq --enable-libzvbi --enable-lv2 --enable-omx --enable-openal --enable-opencl --enable-opengl --enable-sdl2 --enable-pocketsphinx --enable-librsvg --enable-libmfx --enable-libdc1394 --enable-libdrm --enable-libiec61883 --enable-chromaprint --enable-frei0r --enable-libx264 --enable-shared
  libavutil      56. 70.100 / 56. 70.100
  libavcodec     58.134.100 / 58.134.100
  libavformat    58. 76.100 / 58. 76.100
  libavdevice    58. 13.100 / 58. 13.100
  libavfilter     7.110.100 /  7.110.100
  libswscale      5.  9.100 /  5.  9.100
  libswresample   3.  9.100 /  3.  9.100
  libpostproc    55.  9.100 / 55.  9.100
Guessed Channel Layout for Input Stream #0.1 : mono
Input #0, avi, from 'syncnet_python/data/work/pycrop/00001/00000.avi':
  Metadata:
    software        : Lavf58.76.100
  Duration: 00:00:12.68, start: 0.000000, bitrate: 682 kb/s
  Stream #0:0: Video: mpeg4 (Simple Profile) (XVID / 0x44495658), yuv420p, 224x224 [SAR 1:1 DAR 1:1], 415 kb/s, 25 fps, 25 tbr, 25 tbn, 25 tbc
  Stream #0:1: Audio: pcm_s16le ([1][0][0][0] / 0x0001), 16000 Hz, mono, s16, 256 kb/s
Stream mapping:
  Stream #0:1 -> #0:0 (pcm_s16le (native) -> pcm_s16le (native))
Press [q] to stop, [?] for help
-async is forwarded to lavfi similarly to -af aresample=async=1:min_hard_comp=0.100000:first_pts=0.
Output #0, wav, to 'syncnet_python/data/work/pytmp/00001/audio.wav':
  Metadata:
    software        : Lavf58.76.100
    ISFT            : Lavf58.76.100
  Stream #0:0: Audio: pcm_s16le ([1][0][0][0] / 0x0001), 16000 Hz, mono, s16, 256 kb/s
    Metadata:
      encoder         : Lavc58.134.100 pcm_s16le
size=       2kB time=00:00:00.00 bitrate=N/A speed=   0x    size=     396kB time=00:00:12.67 bitrate= 256.2kbits/s speed=2.75e+03x    
video:0kB audio:396kB subtitle:0kB other streams:0kB global headers:0kB muxing overhead: 0.019223%
Model syncnet_python/data/syncnet_v2.model loaded.
Compute time 1.410 sec.
Framewise conf: 
[ 4.503  5.153  6.149  6.149  6.149  6.149  8.473  9.442  9.442  9.442
  9.442  9.442  10.189  10.189  10.189  10.189  9.074  8.943  8.322  6.880
  3.786  3.786  3.657  3.786  4.783  6.880  8.322  4.783  8.709  8.904
  8.904  9.014  8.904  8.727  8.727  8.283  8.283  8.283  8.283  8.283
  8.283  8.283  8.283  7.684  7.684  6.525  6.525  6.525  6.525  6.525
  10.038  11.701  11.718  11.974  12.014  12.090  12.187  12.306  12.306
  12.187  12.187  12.187  11.274  10.958  10.095  9.530  9.530  9.530
  9.174  9.174  9.530  10.095  10.241  10.390  10.390  10.390  9.081
  9.081  9.081  8.365  8.135  8.074  8.038  6.755  6.671  5.850  5.748
  5.690  5.690  5.690  5.690  5.748  6.369  6.672  8.483  8.711  8.712
  8.712  9.614  9.820  9.953  9.820  9.820  9.953  10.837  9.953  9.953
  9.904  9.111  8.397  6.163  6.163  5.814  5.814  5.814  5.581  5.581
  5.581  5.662  7.323  8.156  9.160  10.589  10.822  10.822  10.822
  10.822  10.822  10.822  10.820  10.820  10.731  10.560  10.731  10.820
  10.942  11.047  10.942  11.471  11.471  11.471  11.471  10.765  10.765
  10.765  10.512  10.269  8.510  8.510  8.510  8.281  8.281  8.281  8.281
  8.281  7.762  8.460  10.081  10.481  10.585  10.481  10.081  8.460
  7.706  7.631  7.170  4.958  4.958  4.958  4.958  6.011  7.170  8.260
  8.318  8.318  9.073  9.073  9.109  9.272  10.206  10.206  9.329  9.329
  9.329  8.695  8.695  7.503  6.972  6.576  6.576  6.576  6.576  6.576
  8.553  8.572  9.356  9.356  9.356  9.356  8.988  8.556  8.988  8.988
  8.988  8.795  8.795  8.988  9.236  9.342  9.736  9.736  9.342  9.342
  9.342  9.342  9.342  8.609  8.026  7.488  6.688  3.335  3.335  3.335
  3.335  1.709  3.335  4.474  5.327  5.327  5.327  5.327  5.327  5.745
  5.773  7.743  8.650  8.650  8.650  8.650  8.229  7.743  7.207  6.473
  5.841  5.841  5.841  5.841  5.841  5.094  5.094  5.241  5.241  5.715
  5.715  6.690  6.690  10.504  11.147  11.178  11.419  11.704  11.704
  11.692  11.419  11.419  11.178  11.692  9.982  9.615  9.326  7.747
  7.747  9.326  9.615  9.982  9.615  9.326  7.338  7.117  7.338  9.547
  9.547  9.463  8.517  8.517  8.517  9.463  9.547  10.194  10.194  10.194
  10.194  10.529  10.529  10.529  10.529  9.944  9.907  9.633  9.528
  9.528  9.376  8.784  9.376  8.784  8.784  8.784  9.376  8.784  8.055
  8.055  8.055]
AV offset: 	3 
Min dist: 	6.626
Confidence: 	8.293
Offsets saved to syncnet_python/data/work/pywork/00001/activesd.pckl
